<?xml version="1.0" encoding="UTF-8" standalone="no"?>
<svg
   viewBox="0 0 232 68"
   version="1.1"
   id="svg193"
   sodipodi:docname="logo.svg"
   inkscape:version="1.2.1 (9c6d41e410, 2022-07-14)"
   xmlns:inkscape="http://www.inkscape.org/namespaces/inkscape"
   xmlns:sodipodi="http://sodipodi.sourceforge.net/DTD/sodipodi-0.dtd"
   xmlns="http://www.w3.org/2000/svg"
   xmlns:svg="http://www.w3.org/2000/svg">
  <defs
     id="defs197" />
  <sodipodi:namedview
     id="namedview195"
     pagecolor="#ffffff"
     bordercolor="#000000"
     borderopacity="0.25"
     inkscape:showpageshadow="2"
     inkscape:pageopacity="0.0"
     inkscape:pagecheckerboard="0"
     inkscape:deskcolor="#d1d1d1"
     showgrid="false"
     inkscape:zoom="2.4885892"
     inkscape:cx="18.886203"
     inkscape:cy="125.77407"
     inkscape:window-width="1920"
     inkscape:window-height="974"
     inkscape:window-x="-11"
     inkscape:window-y="-11"
     inkscape:window-maximized="1"
     inkscape:current-layer="svg193" />
  <g
     inkscape:groupmode="layer"
     id="layer1"
     inkscape:label="Layer 1"
     style="display:inline">
    <g
       id="g2510"
       inkscape:label="Logo completo"
       transform="translate(44.804503,-33.553148)">
      <g
         id="g2283"
         inkscape:label="Logo"
         transform="translate(44.201751,-95.636517)">
        <path
           style="fill:#206bc4;fill-opacity:1;stroke-width:0.14207"
           d="m -24.539285,195.03262 c -0.239226,-0.36507 -0.251897,-1.96076 -0.251897,-31.72328 0,-29.76247 0.01267,-31.3582 0.251897,-31.72337 0.319333,-0.48744 0.597489,-0.4875 0.916904,-2.2e-4 0.236186,0.36032 0.256328,1.36164 0.322932,16.05389 0.03907,8.61828 0.03907,22.72093 0,31.33921 -0.0666,14.69225 -0.08675,15.69357 -0.322932,16.05389 -0.319397,0.48726 -0.597553,0.48722 -0.916904,-1.2e-4 z"
           id="path766" />
        <path
           style="fill:#206bc4;fill-opacity:1;stroke:#000000;stroke-width:0;stroke-linejoin:miter;stroke-miterlimit:0;stroke-dasharray:none;stroke-dashoffset:0;stroke-opacity:0;paint-order:markers fill stroke"
           d="m -79.942993,195.4311 c -2.535817,-0.0628 -3.486801,-0.13355 -3.62278,-0.26962 -0.143054,-0.14316 -0.200302,-1.54425 -0.255415,-6.25107 -0.03907,-3.33661 -0.117425,-6.13785 -0.174124,-6.22498 -0.0567,-0.0871 -0.368114,-0.19396 -0.692034,-0.23741 -0.32392,-0.0435 -0.658985,-0.14904 -0.74459,-0.23464 -0.224881,-0.22488 -0.316409,-6.29238 -0.106623,-7.06825 0.165475,-0.612 0.233483,-0.65905 1.184609,-0.8195 l 0.532762,-0.0899 -0.0019,-5.28567 c -0.0011,-2.90711 -0.03848,-5.4218 -0.08313,-5.5882 -0.06336,-0.23612 -0.221615,-0.31837 -0.720764,-0.37464 -0.351767,-0.0396 -0.71393,-0.14644 -0.804807,-0.23732 -0.116968,-0.11696 -0.165233,-1.22473 -0.165233,-3.79236 0,-3.42649 0.01525,-3.63828 0.275776,-3.82878 0.151677,-0.11091 0.511826,-0.20165 0.800332,-0.20165 0.423888,0 0.540995,-0.0614 0.61022,-0.31966 0.04712,-0.17581 0.08654,-2.73307 0.0876,-5.68279 l 0.0019,-5.36314 h -0.55254 c -0.332454,0 -0.686135,-0.10821 -0.887936,-0.27168 l -0.335397,-0.27168 V 139.53 c 0,-3.15886 0.02394,-3.51212 0.253624,-3.74179 0.237405,-0.23739 0.843843,-0.25614 9.482917,-0.29311 l 9.229293,-0.0395 0.197099,-0.47172 c 0.173499,-0.41524 0.277973,-0.48281 0.872491,-0.5643 0.371465,-0.0509 2.136892,-0.0926 3.923168,-0.0926 h 3.247777 v -1.19186 c 0,-1.5971 0.144376,-1.77582 1.567563,-1.94052 1.231307,-0.14249 14.675625,-0.15578 16.498983,-0.0163 0.6772,0.0518 1.284548,0.14735 1.349663,0.21233 0.06511,0.065 0.140485,0.71852 0.167489,1.45232 l 0.0491,1.33419 0.448147,0.0685 c 0.246479,0.0377 1.731593,0.0951 3.300254,0.12768 1.785213,0.037 2.967677,0.12104 3.161054,0.22453 l 0.308943,0.16534 v 29.8119 c 0,16.39655 -0.03873,30.00553 -0.08606,30.24218 -0.06225,0.31128 -0.189957,0.45678 -0.461727,0.52609 -0.480218,0.12248 -43.282054,0.20093 -47.855712,0.0877 z m 13.312252,-3.4021 v -1.82525 l -4.202398,-0.1015 c -2.311319,-0.0558 -4.286019,-0.13359 -4.388222,-0.17281 -0.299475,-0.11491 -0.359778,-0.76779 -0.359778,-3.89516 0,-1.62475 -0.03881,-3.05522 -0.08624,-3.17881 -0.07531,-0.19625 -0.51645,-0.22473 -3.48071,-0.22473 h -3.394476 v 5.5333 5.5333 l 0.745867,0.0522 c 0.410226,0.0287 3.990386,0.064 7.955909,0.0785 l 7.210043,0.0263 z m 26.117462,1.73098 7.695153,-0.0943 V 164.9198 136.17391 h -2.969752 -2.969752 l -0.04923,1.35499 c -0.03348,0.92152 -0.10898,1.39187 -0.235999,1.47028 -0.102722,0.0634 -0.997762,0.15664 -1.988977,0.2072 -2.51985,0.12852 -14.193871,0.0993 -15.644608,-0.0392 -1.581223,-0.15091 -1.714246,-0.30172 -1.714246,-1.94351 v -1.19186 h -3.409675 -3.409676 v 28.91121 28.91121 h 8.500805 c 4.675444,0 11.963625,-0.0424 16.195959,-0.0943 z m -26.117462,-8.28784 v -2.98347 h -2.108742 c -1.159808,0 -2.887275,0.0419 -3.838815,0.093 l -1.730073,0.093 0.03845,2.78389 0.03845,2.78389 0.639314,0.0852 c 0.351623,0.0469 2.061788,0.0948 3.800368,0.10656 l 3.161053,0.0213 z m -9.092468,-7.03246 v -2.34415 l -2.450704,-0.0355 c -3.800311,-0.0551 -5.977753,0.0234 -6.102721,0.22003 -0.133236,0.20961 -0.149952,4.27725 -0.01812,4.40908 0.05209,0.0521 2.002,0.0947 4.333129,0.0947 h 4.238416 z m 9.092468,-0.0935 v -2.43765 l -2.663809,0.0931 c -1.465095,0.0512 -3.191243,0.0933 -3.835885,0.0935 l -1.172076,4e-4 v 2.26128 c 0,1.67609 0.04596,2.27982 0.177588,2.33293 0.09767,0.0394 1.823821,0.0767 3.835884,0.0829 l 3.658298,0.0112 z m 0,-5.93349 v -1.83594 l -4.321477,-0.0465 c -2.376812,-0.0256 -4.374669,-0.0998 -4.439682,-0.16484 -0.06501,-0.0651 -0.15017,-1.67405 -0.189239,-3.57546 -0.03907,-1.90141 -0.124101,-3.51037 -0.188959,-3.57546 -0.169247,-0.16987 -3.015616,-0.28266 -4.895399,-0.194 -1.209693,0.0571 -1.636696,0.12799 -1.73818,0.28875 -0.07842,0.12422 -0.135439,2.45 -0.136707,5.57624 l -0.0022,5.36313 h 7.95591 7.955909 z m 0,-6.40412 v -2.98346 h -3.835885 -3.835885 v 2.75874 c 0,1.51731 0.03881,2.85987 0.08624,2.98346 0.07562,0.19707 0.547753,0.22473 3.835885,0.22473 h 3.74965 z m -9.080832,-4.83037 c 0.1698,-0.25297 0.115788,-4.3241 -0.0597,-4.49958 -0.15394,-0.15394 -8.274305,-0.15365 -8.428773,2.8e-4 -0.06512,0.0649 -0.13888,1.10418 -0.163922,2.30951 -0.04525,2.17821 -0.04353,2.19234 0.284139,2.32698 0.18826,0.0774 2.023048,0.12269 4.277441,0.10568 3.327801,-0.0251 3.970234,-0.0632 4.09081,-0.24287 z m 8.334966,0.19208 0.745866,-0.0896 v -2.3954 -2.39539 h -3.665401 c -2.661441,0 -3.712097,0.0467 -3.835885,0.17048 -0.118144,0.11814 -0.170484,0.85642 -0.170484,2.40477 0,2.00843 0.02513,2.24085 0.248622,2.29926 0.387558,0.10128 5.843036,0.10608 6.677282,0.006 z m 0.745866,-8.29006 v -1.84691 l -3.658298,-0.006 c -3.645056,-0.006 -4.739393,-0.0949 -5.054905,-0.40985 -0.114533,-0.11432 -0.177494,-1.1459 -0.202637,-3.3201 -0.02006,-1.73483 -0.06923,-3.29809 -0.109259,-3.4739 l -0.07278,-0.31966 h -3.406969 -3.406969 v 5.51705 c 0,3.03437 0.04262,5.55966 0.09471,5.61175 0.05209,0.0521 3.632251,0.0947 7.955909,0.0947 h 7.861196 z m 0,-6.55704 v -3.0053 l -1.727143,0.0929 c -0.949928,0.0511 -2.676076,0.0929 -3.835885,0.0929 h -2.108742 v 2.83152 c 0,2.82343 9.1e-4,2.83169 0.319657,2.89308 0.175812,0.0339 1.90196,0.0703 3.835885,0.0809 l 3.516228,0.0194 z m -12.395591,-4.66546 3.303123,-0.001 v -2.34416 -2.34415 h -4.333129 -4.333129 l 0.0019,2.09553 c 0.0011,1.15254 0.04267,2.24772 0.09245,2.43373 0.08699,0.32504 0.126993,0.33476 1.028066,0.24963 0.515655,-0.0487 2.423958,-0.089 4.240676,-0.0896 z m 12.395591,-2.36037 c 0,-2.2226 -0.02505,-2.49181 -0.224725,-2.41518 -0.123597,0.0474 -1.85133,0.0862 -3.839404,0.0862 h -3.614679 l 0.03904,2.30864 0.03904,2.30863 1.278628,0.0797 c 0.703246,0.0438 2.413411,0.0918 3.800368,0.10655 l 2.521739,0.0269 z m 23.903246,-1.99664 2.663809,-0.0931 v -2.22863 -2.22863 l -1.940406,-0.0931 c -1.067222,-0.0512 -4.871141,-0.0931 -8.453153,-0.0931 h -6.512749 v 2.41518 2.41519 l 5.789345,-4e-4 c 3.18414,-2.2e-4 6.988059,-0.0423 8.453154,-0.0935 z"
           id="path736" />
        <path
           style="fill:#206bc4;fill-opacity:1;stroke-width:0.14207"
           d="m -51.003062,169.84446 v -0.71035 h 6.535211 6.535212 v 0.71035 0.71035 h -6.535212 -6.535211 z"
           id="path738" />
        <path
           style="fill:#206bc4;fill-opacity:1;stroke-width:0.14207"
           d="m -51.003062,174.10655 v -0.85242 h 4.740028 4.740028 l 0.09035,0.65915 c 0.04969,0.36253 0.09034,0.74611 0.09034,0.85242 0,0.15919 -0.851672,0.19327 -4.830373,0.19327 h -4.830374 z"
           id="path740" />
        <path
           style="fill:#206bc4;fill-opacity:1;stroke-width:0.14207"
           d="m -59.621309,175.81158 c -0.16894,-0.0681 -0.356502,-0.27185 -0.416805,-0.45272 -0.175349,-0.52594 -0.08772,-5.80395 0.100118,-6.03028 0.125857,-0.15165 0.735226,-0.19447 2.767295,-0.19447 2.430972,0 2.615769,0.0185 2.752965,0.2748 0.08767,0.1638 0.147069,1.4517 0.147069,3.18851 0,3.63807 0.236094,3.35958 -2.837491,3.34703 -1.213293,-0.005 -2.344211,-0.0647 -2.513151,-0.13287 z m 4.022252,-2.86341 c -0.05077,-0.71525 -0.09231,-1.51439 -0.09231,-1.77587 v -0.47542 h -1.470459 -1.470459 l -0.09231,1.30045 c -0.05077,0.71525 -0.09231,1.51439 -0.09231,1.77587 v 0.47542 h 1.655076 1.655077 z"
           id="path742" />
        <path
           style="fill:#206bc4;fill-opacity:1;stroke-width:0.14207"
           d="m -59.482446,188.88586 c -0.170703,-0.0716 -0.375434,-0.25166 -0.454958,-0.40026 -0.199876,-0.37347 -0.321994,-3.1032 -0.207611,-4.64078 0.1422,-1.91151 0.162085,-1.92443 2.961916,-1.92443 3.083341,0 2.912432,-0.20712 2.912432,3.52955 0,3.73803 0.189231,3.49231 -2.721972,3.53446 -1.198691,0.0174 -2.319103,-0.027 -2.489807,-0.0985 z m 3.93315,-3.41372 v -1.84691 h -1.633803 -1.633802 v 1.84691 1.8469 h 1.633802 1.633803 z"
           id="path744" />
        <path
           style="fill:#206bc4;fill-opacity:1;stroke-width:0.14207"
           d="m -51.003062,182.77281 v -0.85242 h 6.535211 6.535212 v 0.85242 0.85242 h -6.535212 -6.535211 z"
           id="path748" />
        <path
           style="fill:#206bc4;fill-opacity:1;stroke-width:0.14207"
           d="m -51.003118,187.07042 -5.6e-5,-0.8169 4.723877,0.0484 c 2.598133,0.0266 4.732632,0.0586 4.743331,0.071 0.0107,0.0124 0.06465,0.35825 0.119884,0.76848 l 0.10043,0.74586 h -4.843705 -4.843705 z"
           id="path750" />
        <path
           style="fill:#206bc4;fill-opacity:1;stroke-width:0.14207"
           d="m -51.003062,143.84568 v -0.85242 h 6.535211 6.535212 v 0.85242 0.85242 h -6.535212 -6.535211 z"
           id="path760" />
        <path
           style="fill:#206bc4;fill-opacity:1;stroke-width:0.14207"
           d="m -59.073614,162.89385 c -0.421867,-0.0511 -0.812012,-0.18305 -0.885761,-0.29966 -0.207076,-0.32741 -0.261033,-5.04451 -0.06751,-5.90235 0.115491,-0.51195 0.664052,-0.62815 2.965391,-0.62815 1.566389,0 2.239091,0.0518 2.423477,0.18663 0.190873,0.13957 0.289383,0.50677 0.390665,1.45621 0.143255,1.34291 0.03248,4.57222 -0.167962,4.89654 -0.21199,0.34301 -2.860726,0.50835 -4.658296,0.29078 z m 3.157524,-1.51775 c 0.18884,-0.0725 0.224724,-0.37872 0.224724,-1.91794 v -1.83171 h -1.476205 -1.476206 l -0.09826,1.52725 c -0.06258,0.97257 -0.04369,1.66915 0.05199,1.91795 0.147488,0.38349 0.17235,0.39069 1.349746,0.39069 0.659719,0 1.300616,-0.0388 1.424214,-0.0862 z"
           id="path752" />
        <path
           style="fill:#206bc4;fill-opacity:1;stroke-width:0.14207"
           d="m -51.003062,161.10716 v -0.78138 h 4.830374 4.830373 v 0.78138 0.78139 h -4.830373 -4.830374 z"
           id="path754" />
        <path
           style="fill:#206bc4;fill-opacity:1;stroke-width:0.14207"
           d="m -51.003062,156.77404 v -0.71035 h 6.535211 6.535212 v 0.71035 0.71034 h -6.535212 -6.535211 z"
           id="path756" />
        <path
           style="fill:#206bc4;fill-opacity:1;stroke-width:0.14207"
           d="m -51.003118,148.21433 5.6e-5,-0.8169 h 4.843705 4.843705 l -0.10043,0.74586 c -0.05524,0.41023 -0.109185,0.75605 -0.119884,0.76848 -0.0107,0.0124 -2.145198,0.0444 -4.743331,0.071 l -4.723877,0.0484 z"
           id="path758" />
        <path
           style="display:inline;fill:#206bc4;fill-opacity:1;stroke-width:0.14207"
           d="m -59.620422,149.9645 c -0.424029,-0.1839 -0.48153,-0.57925 -0.510711,-3.51143 -0.0219,-2.20015 0.0087,-2.61617 0.215455,-2.93175 0.310843,-0.47441 0.954661,-0.57325 3.304874,-0.50738 2.469551,0.0692 2.340137,-0.12937 2.340137,3.59069 0,2.19958 -0.04525,2.93142 -0.193823,3.13461 -0.172888,0.23643 -0.445254,0.27009 -2.521739,0.31158 -1.280354,0.0256 -2.465741,-0.0133 -2.634193,-0.0863 z m 4.071126,-3.41949 v -1.84691 h -1.633803 -1.633802 v 1.84691 1.84691 h 1.633802 1.633803 z"
           id="path764" />
      </g>
      <g
         id="g2479"
         inkscape:label="Letras"
         transform="translate(44.201751,-95.636517)">
        <path
           style="fill:#666666;fill-opacity:1;stroke:#000000;stroke-width:0;stroke-linejoin:miter;stroke-miterlimit:0;stroke-dasharray:none;stroke-dashoffset:0;stroke-opacity:0;paint-order:markers fill stroke"
           d="m -9.744477,161.46032 c -2.882923,-0.75794 -5.186783,-3.63263 -6.240578,-7.78681 -0.446776,-1.76124 -0.490143,-2.32652 -0.490143,-6.38882 0,-5.08996 0.250574,-6.57445 1.59606,-9.45559 2.038781,-4.36573 5.9195708,-6.08903 10.1488106,-4.50666 2.2240696,0.83213 4.40437163,3.728 5.20831389,6.91766 0.94305401,3.7416 0.96323991,9.91412 0.0440229,13.46144 -0.96021936,3.70556 -2.41025319,5.8717 -4.77892139,7.139 -1.1356665,0.60761 -1.4574153,0.68378 -3.0765604,0.72841 -0.9945394,0.0274 -2.0794915,-0.0215 -2.4110046,-0.10863 z m 4.3438182,-2.7556 c 1.0083848,-0.5075 2.3584047,-2.25031 2.7622532,-3.56595 0.7407292,-2.41311 0.9308855,-4.1237 0.9079824,-8.16795 -0.032989,-5.82529 -0.6913142,-8.47711 -2.5699632,-10.35212 -1.1934535,-1.19114 -2.3743901,-1.62407 -3.9281765,-1.44005 -2.6865441,0.31819 -4.1999931,2.18021 -5.0559791,6.22049 -0.462353,2.18231 -0.574291,8.61077 -0.187981,10.79553 0.723061,4.08923 2.308437,6.45312 4.5703393,6.81464 1.1873663,0.18978 2.7975198,0.0497 3.5015249,-0.30459 z"
           id="path2423" />
        <path
           style="fill:#666666;fill-opacity:1;stroke:#000000;stroke-width:0;stroke-linejoin:miter;stroke-miterlimit:0;stroke-dasharray:none;stroke-dashoffset:0;stroke-opacity:0;paint-order:markers fill stroke"
           d="m 6.6302627,147.14644 v -13.88858 l 4.0736753,0.0857 c 4.046254,0.0851 4.082552,0.0899 5.392332,0.70278 3.106906,1.45389 4.353386,3.98616 4.149973,8.43081 -0.13549,2.96051 -0.606688,4.17697 -2.258216,5.82986 -1.047675,1.04854 -1.444541,1.30054 -2.619835,1.66356 -0.761816,0.2353 -2.067565,0.47456 -2.901666,0.53169 -0.834101,0.0571 -1.900801,0.15039 -2.370444,0.20724 l -0.8538976,0.10336 v 5.11107 5.11108 H 7.9362236 6.6302627 Z m 8.3347773,0.32458 c 0.953304,-0.49125 1.277204,-0.79897 1.778317,-1.68947 0.558703,-0.99284 0.62028,-1.28653 0.698569,-3.33185 0.105095,-2.74563 -0.235472,-4.15436 -1.285256,-5.31634 -0.984981,-1.09026 -2.069993,-1.41389 -4.740189,-1.41389 H 9.2421844 v 5.91062 c 0,3.25084 0.058542,6.06318 0.1300942,6.24964 0.1133851,0.29548 0.4060465,0.32957 2.2786254,0.26548 1.91204,-0.0654 2.276831,-0.13965 3.314136,-0.67419 z"
           id="path2425" />
        <path
           style="fill:#666666;fill-opacity:1;stroke:#000000;stroke-width:0;stroke-linejoin:miter;stroke-miterlimit:0;stroke-dasharray:none;stroke-dashoffset:0;stroke-opacity:0;paint-order:markers fill stroke"
           d="m 24.913714,147.17174 v -13.86328 h 5.625678 5.625677 l -0.0031,0.8539 c -0.0017,0.46965 -0.07039,0.95972 -0.152658,1.08905 -0.100881,0.15859 -1.473568,0.28255 -4.216181,0.38074 l -4.066601,0.14559 v 4.89333 4.89333 h 3.616507 3.616507 v 1.30597 1.30596 H 31.34306 27.726553 v 5.3243 5.3243 h 4.420175 4.420176 v 1.10504 1.10505 h -5.826595 -5.826595 z"
           id="path2427" />
        <path
           style="fill:#666666;fill-opacity:1;stroke:#000000;stroke-width:0;stroke-linejoin:miter;stroke-miterlimit:0;stroke-dasharray:none;stroke-dashoffset:0;stroke-opacity:0;paint-order:markers fill stroke"
           d="m 41.388913,147.17174 v -13.86328 l 1.858483,9.3e-4 1.858482,9.3e-4 3.401707,9.69332 c 3.323585,9.47071 5.040629,14.18429 5.239411,14.38307 0.290868,0.29086 0.307914,-0.6508 0.112106,-6.19309 -0.117837,-3.33535 -0.214249,-8.72397 -0.214249,-11.97472 v -5.91044 h 1.305961 1.305961 v 13.87056 13.87055 l -1.94274,-0.0575 -1.94274,-0.0575 -2.572655,-7.33347 c -4.186031,-11.93248 -5.859159,-16.4752 -6.067973,-16.4752 -0.127556,0 -0.152984,4.20357 -0.07231,11.95456 l 0.12442,11.95457 h -1.19693 -1.196931 z"
           id="path2429" />
        <path
           style="fill:#666666;fill-opacity:1;stroke:#000000;stroke-width:0;stroke-linejoin:miter;stroke-miterlimit:0;stroke-dasharray:none;stroke-dashoffset:0;stroke-opacity:0;paint-order:markers fill stroke"
           d="m -15.470613,179.41893 v -13.96374 h 1.406419 1.40642 v 13.96374 13.96373 h -1.40642 -1.406419 z"
           id="path2431" />
        <path
           style="fill:#666666;fill-opacity:1;stroke:#000000;stroke-width:0;stroke-linejoin:miter;stroke-miterlimit:0;stroke-dasharray:none;stroke-dashoffset:0;stroke-opacity:0;paint-order:markers fill stroke"
           d="m -6.2284286,179.41139 v -13.97128 l 1.8311534,0.0578 1.8311536,0.0578 0.3678889,1.00459 c 0.202339,0.55252 1.78124744,5.02795 3.5086856,9.94539 3.6397792,10.36125 4.6649253,13.05961 4.9615321,13.05961 0.1447148,0 0.1730873,-0.5692 0.087632,-1.75803 -0.069503,-0.96691 -0.1869883,-6.39167 -0.2610774,-12.05502 l -0.1347077,-10.297 H 7.201174 8.4385162 v 13.97128 13.97127 L 6.6004561,193.34 4.762396,193.2822 1.3041683,183.43727 c -3.4134405,-9.71744 -5.02145,-14.13148 -5.2205339,-14.33057 -0.056087,-0.0561 -0.1450726,-0.0589 -0.197747,-0.006 -0.052674,0.0527 -0.00994,2.80273 0.094963,6.11123 0.104904,3.3085 0.1932074,8.75043 0.19623,12.09319 l 0.0055,6.07774 h -1.2055023 -1.2055023 z"
           id="path2435" />
        <path
           style="fill:#666666;fill-opacity:1;stroke:#000000;stroke-width:0;stroke-linejoin:miter;stroke-miterlimit:0;stroke-dasharray:none;stroke-dashoffset:0;stroke-opacity:0;paint-order:markers fill stroke"
           d="m 19.284624,193.25318 c -0.225204,-0.0612 -1.134821,-3.58925 -3.483633,-13.51153 -1.748364,-7.38577 -3.193431,-13.59907 -3.21126,-13.80733 -0.02868,-0.335 0.116377,-0.37867 1.257895,-0.37867 h 1.290309 l 2.452015,11.05044 c 2.796502,12.60293 2.959861,13.27429 3.21751,13.22309 0.257857,-0.0512 0.93987,-2.9428 3.303983,-14.00807 1.11184,-5.20398 2.106908,-9.66522 2.211261,-9.91385 0.167266,-0.39854 0.334585,-0.45207 1.413081,-0.45207 1.07062,0 1.210414,0.0439 1.11974,0.35161 -0.05698,0.19338 -1.469821,6.27363 -3.139636,13.51167 -1.669816,7.23804 -3.085689,13.36349 -3.146385,13.61213 -0.102336,0.41921 -0.21464,0.45037 -1.545224,0.42876 -0.789177,-0.0128 -1.572022,-0.0606 -1.739656,-0.10618 z"
           id="path2437" />
        <path
           style="fill:#666666;fill-opacity:1;stroke:#000000;stroke-width:0;stroke-linejoin:miter;stroke-miterlimit:0;stroke-dasharray:none;stroke-dashoffset:0;stroke-opacity:0;paint-order:markers fill stroke"
           d="m 32.950397,179.41893 v -13.96374 h 5.625677 5.625678 l -0.0022,0.45207 c -0.0012,0.24863 -0.05825,0.79111 -0.126747,1.2055 l -0.124536,0.75344 H 39.7553 35.56233 v 4.92246 4.92247 h 3.616507 3.616507 v 1.30596 1.30596 H 39.178837 35.56233 v 5.32431 5.3243 h 4.420175 4.420176 v 1.2055 1.2055 h -5.726136 -5.726136 z"
           id="path2439" />
        <path
           style="fill:#666666;fill-opacity:1;stroke:#000000;stroke-width:0;stroke-linejoin:miter;stroke-miterlimit:0;stroke-dasharray:none;stroke-dashoffset:0;stroke-opacity:0;paint-order:markers fill stroke"
           d="m 49.425595,179.39894 v -13.98373 l 1.791759,0.0702 c 0.985468,0.0386 1.828174,0.11543 1.872681,0.17068 0.04451,0.0553 1.508947,4.16903 3.254312,9.14173 3.99405,11.3794 5.333187,14.96832 5.585146,14.96832 0.124345,0 0.154342,-0.54748 0.07981,-1.45665 -0.06567,-0.80116 -0.178719,-6.27113 -0.25121,-12.15548 l -0.131801,-10.69884 h 1.233122 1.233123 v 13.98507 13.98506 l -1.858483,-0.14422 c -1.022166,-0.0793 -1.874113,-0.1573 -1.893216,-0.17327 -0.0191,-0.016 -1.522985,-4.27787 -3.341961,-9.47089 -4.238805,-12.10143 -5.154609,-14.56524 -5.413934,-14.56524 -0.143522,0 -0.169272,0.82129 -0.08032,2.56169 0.07201,1.40893 0.19073,6.8789 0.263816,12.15548 l 0.132885,9.59379 h -1.237867 -1.237866 z"
           id="path2441" />
        <path
           style="fill:#666666;fill-opacity:1;stroke:#000000;stroke-width:0;stroke-linejoin:miter;stroke-miterlimit:0;stroke-dasharray:none;stroke-dashoffset:0;stroke-opacity:0;paint-order:markers fill stroke"
           d="m 74.138392,180.72489 v -12.65778 h -3.013755 -3.013756 v -1.30596 -1.30596 h 7.521757 7.521758 l -0.100842,0.75344 c -0.256168,1.91395 -0.134283,1.85183 -3.641089,1.85574 l -2.461234,0.003 V 178.584 c 0,5.78429 -0.05895,11.48029 -0.130991,12.65778 l -0.130991,2.14088 H 75.41382 74.138392 Z"
           id="path2445" />
        <path
           style="fill:#666666;fill-opacity:1;stroke:#000000;stroke-width:0;stroke-linejoin:miter;stroke-miterlimit:0;stroke-dasharray:none;stroke-dashoffset:0;stroke-opacity:0;paint-order:markers fill stroke"
           d="m 92.197276,193.51815 c -2.728141,-1.01632 -4.717765,-3.62857 -5.841766,-7.66988 -0.406373,-1.46109 -0.446335,-2.04605 -0.43923,-6.42934 0.007,-4.30555 0.05434,-4.99154 0.442217,-6.40487 1.049656,-3.8247 3.114272,-6.62566 5.561054,-7.54439 1.64736,-0.61856 3.965305,-0.62369 5.591047,-0.0124 2.370748,0.89145 4.485832,3.71665 5.369692,7.17251 0.64145,2.50805 0.89586,6.42338 0.61626,9.48418 -0.51907,5.68219 -2.37899,9.3908 -5.524553,11.01568 -0.872987,0.45096 -1.335002,0.54151 -3.03869,0.59554 -1.337269,0.0424 -2.252245,-0.0268 -2.736031,-0.20706 z m 4.055122,-2.3459 c 1.643027,-0.45642 3.171028,-2.47088 3.895522,-5.13571 0.42122,-1.54932 0.6352,-8.09718 0.35413,-10.83687 -0.35069,-3.41843 -1.501527,-5.99329 -3.187901,-7.13256 -0.613064,-0.41416 -1.036527,-0.5147 -2.41364,-0.57304 -1.503728,-0.0637 -1.758345,-0.019 -2.555514,0.44813 -1.696511,0.99422 -2.649228,2.60853 -3.275249,5.54967 -0.513529,2.41264 -0.517689,9.43459 -0.007,11.74439 0.390661,1.76679 1.098839,3.45962 1.870563,4.4714 1.056681,1.38538 3.340501,2.01423 5.319047,1.46459 z"
           id="path2447" />
        <path
           style="fill:#666666;fill-opacity:1;stroke:#000000;stroke-width:0;stroke-linejoin:miter;stroke-miterlimit:0;stroke-dasharray:none;stroke-dashoffset:0;stroke-opacity:0;paint-order:markers fill stroke"
           d="m 108.89704,179.39582 v -13.98685 l 4.06857,0.0911 c 3.60587,0.0808 4.2007,0.14245 5.23034,0.54227 1.77772,0.69031 2.75532,1.54288 3.54704,3.09341 0.64175,1.25679 0.696,1.51139 0.76882,3.60759 0.0654,1.88378 0.0116,2.44515 -0.32688,3.40725 -0.57439,1.63276 -1.44841,2.8042 -2.72392,3.65083 -0.60674,0.40273 -1.15575,0.81733 -1.22002,0.92132 -0.0643,0.10399 1.10711,2.95355 2.60307,6.33234 1.49596,3.3788 2.71993,6.18869 2.71993,6.24421 0,0.0555 -0.65339,0.0744 -1.45197,0.0419 l -1.45197,-0.059 -2.52105,-5.92705 -2.52105,-5.92705 -1.95403,-0.0575 -1.95404,-0.0575 v 6.03479 6.03478 h -1.40642 -1.40642 z m 8.21022,-0.99906 c 1.69184,-0.7069 2.451,-2.03116 2.59309,-4.52334 0.12705,-2.22825 -0.1792,-3.5187 -1.08668,-4.57888 -0.92559,-1.08135 -2.09912,-1.42834 -4.83063,-1.42834 h -2.07316 v 5.40801 c 0,4.13106 0.0593,5.43521 0.25115,5.52316 0.46527,0.21332 4.41227,-0.0939 5.14623,-0.40061 z"
           id="path2449" />
        <path
           style="fill:#666666;fill-opacity:1;stroke:#000000;stroke-width:0;stroke-linejoin:miter;stroke-miterlimit:0;stroke-dasharray:none;stroke-dashoffset:0;stroke-opacity:0;paint-order:markers fill stroke"
           d="m 132.20234,188.00813 -0.001,-5.37453 -3.31406,-8.40493 c -1.82273,-4.62271 -3.31405,-8.48785 -3.31405,-8.5892 0,-0.22184 2.20888,-0.24274 2.5528,-0.0241 0.13324,0.0847 1.04926,2.36622 2.0356,5.07008 2.31171,6.33711 3.18696,8.63963 3.34371,8.79639 0.0695,0.0695 0.20964,-0.007 0.31136,-0.16914 0.20027,-0.32007 2.54838,-6.64101 4.12153,-11.09485 l 0.97578,-2.76261 h 1.35729 1.35728 l -0.47445,1.25573 c -0.26095,0.69066 -1.74871,4.47845 -3.30613,8.41731 l -2.83167,7.16158 v 5.54643 5.54642 h -1.40642 -1.40642 l -10e-4,-5.37453 z"
           id="path2451" />
      </g>
    </g>
  </g>
</svg>
